# xmcd
#
# Track frame offsets: 
#        150
#        17001
#        45076
#        61842
#        87390
#        115181
#        134757
#        157993
#        189596
#        210316
#        225288
#        246854
#
# Disc length: 3589 seconds
#
# Revision: 0
# Processed by: cddbd v1.5.2PL0 Copyright (c) Steve Scherf et al.
# Submitted via: ExactAudioCopy v1.0b3
#
DISCID=8f0e030c
DTITLE=John R. Brown - Nothin' But the Truth
DYEAR=1997
DGENRE=
TTITLE0=Cheatin' and Stealin'
TTITLE1=There Goes the Blues
TTITLE2=Your House, Your Home
TTITLE3=Tender Age, Gentle Woman
TTITLE4=Strage Situation
TTITLE5=Two Steps from the Blues
TTITLE6=Once Was
TTITLE7=Ain't No Way
TTITLE8=No Part-Time Lover
TTITLE9=Stand the Pain
TTITLE10=Blue and Lonesome
TTITLE11=Nothin' But the Truth, So Help Me John
EXTD=
EXTT0=
EXTT1=
EXTT2=
EXTT3=
EXTT4=
EXTT5=
EXTT6=
EXTT7=
EXTT8=
EXTT9=
EXTT10=
EXTT11=
PLAYORDER=
